<svg width="32" height="32" viewBox="0 0 32 32" fill="none" xmlns="http://www.w3.org/2000/svg">
  <!-- OpenWrt wifi arcs + Nym N from nymwrt logo -->
  <!-- Dot -->
  <circle cx="16" cy="11.5" r="1.8" fill="#14E76F"/>
  <!-- Inner arc -->
  <path d="M12.2 8.8a5.4 5.4 0 0 1 7.6 0" stroke="#14E76F" stroke-width="1.8" stroke-linecap="round" fill="none"/>
  <!-- Middle arc -->
  <path d="M9.5 6.1a9.2 9.2 0 0 1 13 0" stroke="#14E76F" stroke-width="1.8" stroke-linecap="round" fill="none"/>
  <!-- Outer arc -->
  <path d="M6.8 3.4a13 13 0 0 1 18.4 0" stroke="#14E76F" stroke-width="1.8" stroke-linecap="round" fill="none"/>
  <!-- Circle outline (from OpenWrt logo) -->
  <circle cx="16" cy="11.5" r="8.5" stroke="#0BA84E" stroke-width="1.5" fill="none" stroke-dasharray="0 14.5 39.2"/>
  <!-- Nym N letterform -->
  <path d="M9.5 19.5C9.5 19.05 9.87 18.7 10.3 18.7H13.2C13.72 18.7 14.16 19.04 14.3 19.55L17.1 28.65C17.13 28.78 17.33 28.76 17.33 28.63V18.7H22.5V28.5C22.5 28.95 22.13 29.3 21.7 29.3H18.76C18.24 29.3 17.8 28.96 17.66 28.46L14.9 19.63C14.87 19.5 14.67 19.52 14.67 19.66V29.3H9.5V19.5Z" fill="#14E76F"/>
</svg>
